#!OML:ASF F:\VICON\USERDATA\INSTALL\Justin_Nancy\Justin_Nancy.ASF
:FULLY-SPECIFIED
:DEGREES
205
root 12.7879 17.4488 1.94545 2.48206 -12.1155 8.26666
lowerback 5.79364 -0.866118 -7.99774
upperback -0.712287 -1.72388 0.102196
thorax -3.7651 -0.6863 4.75171
lowerneck -16.1572 -4.49269 -9.81833
upperneck 25.0531 -5.17255 5.45701
head 11.2085 -2.64696 2.89279
rclavicle 8.54774e-015 1.74931e-014
rhumerus -33.6711 -13.9034 -80.2433
rradius 31.4705
rwrist 8.43092
rhand -12.7451 13.6945
rfingers 7.12502
rthumb 13.3389 -15.8586
lclavicle 8.54774e-015 1.74931e-014
lhumerus -24.2572 11.6164 78.2883
lradius 28.1275
lwrist -7.70111
lhand -18.1822 21.9658
lfingers 7.12502
lthumb 8.09452 51.7907
rfemur -32.671 -12.0568 26.0878
rtibia 19.9815
rfoot -8.95027 -34.9688
rtoes 22.8398
lfemur -0.248099 5.34762 -29.2394
ltibia 19.5026
lfoot -14.1502 12.4699
ltoes -2.57653
206
root 12.7512 17.423 2.06015 2.46229 -12.5464 8.35585
lowerback 5.76208 -0.973457 -8.03154
upperback -0.807813 -1.86844 0.164309
thorax -3.82427 -0.751366 4.84827
lowerneck -16.0207 -4.4887 -9.89435
upperneck 24.9789 -5.15727 5.44734
head 11.1547 -2.65086 2.90471
rclavicle -4.52235e-015 -3.57812e-014
rhumerus -33.7189 -13.3989 -80.4057
rradius 31.9381
rwrist 7.96691
rhand -13.1977 12.9228
rfingers 7.12502
rthumb 12.9027 -16.6583
lclavicle -4.52235e-015 -3.57812e-014
lhumerus -24.6539 11.8983 78.2027
lradius 27.9762
lwrist -7.39051
lhand -17.1874 24.9563
lfingers 7.12502
lthumb 9.05455 54.7419
rfemur -32.6286 -12.2621 26.4209
rtibia 20.0535
rfoot -6.95367 -34.6427
rtoes 20.874
lfemur 0.243316 5.50683 -29.2476
ltibia 19.6225
lfoot -14.1859 12.4979
ltoes -10.2169
207
root 12.7091 17.4064 2.1759 2.37484 -12.9278 8.46896
lowerback 5.6591 -1.0198 -8.03176
upperback -0.751819 -1.91839 0.156101
thorax -3.70041 -0.783292 4.83947
lowerneck -16.2129 -4.53534 -9.76781
upperneck 25.0312 -5.2234 5.37612
head 11.2121 -2.67532 2.84521
rclavicle -1.0635e-014 1.98785e-014
rhumerus -33.6209 -12.945 -80.7147
rradius 32.4777
rwrist 6.8914
rhand -14.4353 12.1874
rfingers 7.12502
rthumb 11.7093 -17.4654
lclavicle -1.0635e-014 1.98785e-014
lhumerus -24.652 11.9702 78.1719
lradius 27.9547
lwrist -7.74781
lhand -16.1945 27.2243
lfingers 7.12502
lthumb 10.0125 56.9661
rfemur -32.3573 -12.3166 26.574
rtibia 20.1301
rfoot -6.65357 -34.0828
rtoes 21.7451
lfemur 0.6139 5.58893 -29.2615
ltibia 20.057
lfoot -13.9832 12.6366
ltoes -7.37894
208
root 12.6656 17.4106 2.29286 2.22181 -13.4106 8.69793
lowerback 5.55798 -1.05051 -8.10111
upperback -0.692474 -1.95474 0.0839003
thorax -3.57635 -0.807822 4.80119
lowerneck -16.4602 -4.59923 -9.54078
upperneck 25.0111 -5.33162 5.29349
head 11.2526 -2.70879 2.75635
rclavicle -8.15017e-015 7.95139e-016
rhumerus -33.4179 -12.8565 -80.8621
rradius 32.65
rwrist 6.33456
rhand -14.8938 12.202
rfingers 7.12502
rthumb 11.2672 -17.4754
lclavicle -8.15017e-015 7.95139e-016
lhumerus -24.6358 12.0378 78.1854
lradius 27.3529
lwrist -7.29378
lhand -17.8244 24.5762
lfingers 7.12502
lthumb 8.43976 54.3876
rfemur -31.8995 -12.3279 26.5252
rtibia 20.2935
rfoot -4.88866 -32.403
rtoes 23.0923
lfemur 0.812782 5.58786 -29.3717
ltibia 20.6376
lfoot -14.0323 12.5455
ltoes -11.7613
209
root 12.6204 17.4117 2.41202 2.09294 -13.9703 8.89406
lowerback 5.50993 -1.0795 -8.19114
upperback -0.780814 -1.99953 0.0794112
thorax -3.63308 -0.82323 4.85059
lowerneck -16.4237 -4.77967 -9.71812
upperneck 25.0057 -5.5692 5.37846
head 11.2736 -2.8244 2.78098
rclavicle -5.22804e-014 7.15625e-015
rhumerus -33.4746 -12.8557 -80.8405
rradius 32.8284
rwrist 6.26051
rhand -14.765 12.4131
rfingers 7.12502
rthumb 11.3914 -17.2575
lclavicle -5.22804e-014 7.15625e-015
lhumerus -25.0623 12.1871 78.1775
lradius 27.0277
lwrist -7.51239
lhand -18.2194 24.9587
lfingers 7.12502
lthumb 8.05861 54.785
rfemur -31.3484 -12.1798 26.4854
rtibia 20.3151
rfoot -3.55627 -30.5367
rtoes 25.5177
lfemur 0.708482 6.12747 -29.3548
ltibia 21.4859
lfoot -13.8056 12.6126
ltoes -16.0774
210
root 12.57 17.3975 2.52138 2.12649 -14.4079 8.80244
lowerback 5.43691 -1.18559 -8.06185
upperback -0.849138 -2.12625 0.136949
thorax -3.64717 -0.885694 4.84658
lowerneck -16.2877 -4.94185 -9.83239
upperneck 24.9588 -5.79505 5.41737
head 11.2551 -2.93566 2.78066
rclavicle 3.05134e-014 1.11319e-014
rhumerus -33.5137 -12.5569 -81.0239
rradius 33.2301
rwrist 5.73861
rhand -14.7376 12.7868
rfingers 7.12502
rthumb 11.4179 -16.8823
lclavicle 3.05134e-014 1.11319e-014
lhumerus -25.3906 12.5622 78.0073
lradius 26.7734
lwrist -8.09177
lhand -17.7124 26.067
lfingers 7.12502
lthumb 8.54786 55.874
rfemur -30.8904 -11.6353 26.6554
rtibia 20.2367
rfoot -3.49235 -30.1976
rtoes 26.9701
lfemur 0.291421 6.23689 -29.0273
ltibia 22.4937
lfoot -13.4156 12.9574
ltoes -20.0032
211
root 12.5212 17.3958 2.63521 2.00272 -14.786 8.84774
lowerback 5.50412 -1.28783 -8.02406
upperback -0.908754 -2.26765 0.17131
thorax -3.72747 -0.951157 4.87549
lowerneck -16.0781 -5.02415 -9.93177
upperneck 24.9009 -5.91704 5.44979
head 11.208 -3.00064 2.79271
rclavicle -2.31087e-014 -3.18055e-014
rhumerus -33.5381 -12.5739 -80.9738
rradius 33.3532
rwrist 5.58768
rhand -14.6192 13.1666
rfingers 7.12502
rthumb 11.532 -16.4961
lclavicle -2.31087e-014 -3.18055e-014
lhumerus -25.7386 12.6929 77.974
lradius 26.3884
lwrist -7.73503
lhand -18.3448 24.6956
lfingers 7.12502
lthumb 7.93758 54.5266
rfemur -30.175 -11.0219 26.5187
rtibia 19.9883
rfoot -3.02821 -30.764
rtoes 25.4591
lfemur 0.522959 6.14611 -28.9102
ltibia 23.6503
lfoot -14.0641 12.1533
ltoes -19.7023
